<svg xmlns="http://www.w3.org/2000/svg" viewBox="0 0 1938.59 830.03"><defs><style>.cls-1{fill:none;stroke:#f4f47d;stroke-miterlimit:10;}</style></defs><title>Asset 39</title><g id="Layer_2" data-name="Layer 2"><g id="Layer_1-2" data-name="Layer 1"><path class="cls-1" d="M1938.09,830c0-133-247.45-212.82-405-191-188.18,26.06-249.71,67.45-498,71-182.4,2.6-388.77,5.55-567,81-18.59,7.87-110.62,42.46-154,33-85.4-18.63-105.21-148.59-104-255,1.09-95.48,62.72-127.78,45-186-14-45.89-106.3-86.88-255-109.5"/><path class="cls-1" d="M1278.09,824c0-67-163.23-66.56-288-75-114.62-7.75-150.53,15.35-297,12-162.16-3.71-243.23-5.56-309-51-110.44-76.31-83.72-183.87-222-315-52.94-50.21-113-121.5-162-121.5"/><path class="cls-1" d="M632.09,830c0-100-206-32-281-69-117-57.73-176.1-154.47-232-240-52.27-80-64-247.5-119-247.5"/><path class="cls-1" d="M1932.09,158c0-52,1.44-102.05-36-135-58-51-160-3.69-291,27-180.5,42.28-324.15,31.5-504,18-284.49-21.35-313.33-91-459-48-121.61,35.86-141.78,96.24-306,162-122.47,49-241,91.5-336,91.5"/><path class="cls-1" d="M1278.09,160c0-36-88.67-41.74-150-53-74.59-13.69-114.92,4.49-195,3-83.59-1.55-94.57-22.38-198-42-101.79-19.31-299.33-56.78-387,39-42.58,46.52-22.16,84-66,129-63.89,65.63-194.79,54.1-282,37.5"/><path class="cls-1" d="M639.09,158c0-73-152.57-87.71-198-84-71.31,5.82-113.13,40.12-210,85-84,38.91-170,114.5-231,114.5"/></g></g></svg>