<svg xmlns="http://www.w3.org/2000/svg" viewBox="0 0 131.29 84.54"><defs><style>.cls-1{fill:#fbb03b;}.cls-2{font-size:32px;fill:#e8e6e6;font-family:PoorRichard-Regular, Poor Richard;}</style></defs><title>Asset 5</title><g id="Layer_2" data-name="Layer 2"><g id="Layer_1-2" data-name="Layer 1"><path class="cls-1" d="M131.25,16.15A66.27,66.27,0,0,1,130.47,29a65.46,65.46,0,0,1-3.36,12.51,66.76,66.76,0,0,1-13.77,22.06A67.48,67.48,0,0,1,91.9,78.76,68,68,0,0,1,66,84.51a70.13,70.13,0,0,1-26.41-4.42A61,61,0,0,1,17.18,65.22,62.81,62.81,0,0,1,3.26,42.42,57,57,0,0,1,.45,16.48h.8a76.6,76.6,0,0,0,7.2,23.78,68.67,68.67,0,0,0,14.38,19.3A72.28,72.28,0,0,0,42.63,72.77,60.22,60.22,0,0,0,54,76.62a62.28,62.28,0,0,0,12,1.49,63,63,0,0,0,44.5-17.37,63.53,63.53,0,0,0,14.32-20.18,65.59,65.59,0,0,0,5.62-24.42Z"/><text class="cls-2" transform="translate(29.08 27.2)">watch</text></g></g></svg>