<svg xmlns="http://www.w3.org/2000/svg" viewBox="0 0 131.29 68.39"><defs><style>.cls-1{fill:#fbb03b;}</style></defs><title>Asset 48</title><g id="Layer_2" data-name="Layer 2"><g id="Layer_1-2" data-name="Layer 1"><path class="cls-1" d="M131.25,0a66.27,66.27,0,0,1-.78,12.85,65.46,65.46,0,0,1-3.36,12.51,66.76,66.76,0,0,1-13.77,22.06A67.48,67.48,0,0,1,91.9,62.62,68,68,0,0,1,66,68.37a70.13,70.13,0,0,1-26.41-4.42A61,61,0,0,1,17.18,49.08,62.81,62.81,0,0,1,3.26,26.28,57,57,0,0,1,.45.33h.8a76.6,76.6,0,0,0,7.2,23.78,68.67,68.67,0,0,0,14.38,19.3A72.28,72.28,0,0,0,42.63,56.63,60.22,60.22,0,0,0,54,60.47,62.28,62.28,0,0,0,66,62a63,63,0,0,0,44.5-17.37,63.53,63.53,0,0,0,14.32-20.18A65.59,65.59,0,0,0,130.45,0Z"/></g></g></svg>