<svg xmlns="http://www.w3.org/2000/svg" viewBox="0 0 532.39 477.41"><defs><style>.cls-1{fill:#fff;}.cls-2{opacity:0.8;}.cls-3{opacity:0.46;}.cls-4{opacity:0.2;}</style></defs><title>Asset 20</title><g id="Layer_2" data-name="Layer 2"><g id="Layer_1-2" data-name="Layer 1"><path class="cls-1" d="M161.22,257a89.73,89.73,0,0,1,28.88-20.5,91.74,91.74,0,0,1,34.92-7.7,96.49,96.49,0,0,1,18,1.3,73.61,73.61,0,0,1,17.36,5.24c1.36.66,2.75,1.26,4.09,2s2.69,1.39,4,2.17,2.58,1.56,3.83,2.41,2.49,1.7,3.68,2.62A69.93,69.93,0,0,1,288.83,257l-.35.35A132.17,132.17,0,0,0,274,247.46c-1.24-.74-2.54-1.39-3.78-2.11s-2.57-1.3-3.85-1.95-2.61-1.2-3.91-1.8-2.66-1.07-4-1.61a119.46,119.46,0,0,0-16.41-5A84.5,84.5,0,0,0,225,232.83a88.49,88.49,0,0,0-34,6,90.62,90.62,0,0,0-29.49,18.55Z"/><g class="cls-2"><path class="cls-1" d="M373.53,320.83a147.41,147.41,0,0,1-9.42,57.61,150.57,150.57,0,0,1-13.23,26.48,152.27,152.27,0,0,1-18.34,23.41A163.47,163.47,0,0,1,310,448a116.87,116.87,0,0,1-26.43,14.19,125.88,125.88,0,0,1-29,7.25,110.82,110.82,0,0,1-29.57-.13v-1a235,235,0,0,0,28.2-5.8A181.9,181.9,0,0,0,279.77,453a212.82,212.82,0,0,0,24.75-13.18,135,135,0,0,0,22.36-17.12,148.5,148.5,0,0,0,41.81-73.27c.48-2.35,1-4.69,1.46-7.05s.79-4.74,1.12-7.12.57-4.78.81-7.18l.46-7.23Z"/></g><g class="cls-3"><path class="cls-1" d="M68.44,477.41a220.55,220.55,0,0,1-49.9-71.06A223.39,223.39,0,0,1,5,364.59a225.55,225.55,0,0,1-5-43.76,236.56,236.56,0,0,1,3.4-44.08,186.71,186.71,0,0,1,12.81-42.41,196.58,196.58,0,0,1,22.15-38.23,179.24,179.24,0,0,1,30.07-31.87l.71.71A299.68,299.68,0,0,0,44.21,200a252,252,0,0,0-18.75,38.14,275.61,275.61,0,0,0-12.33,40.5A208,208,0,0,0,8,320.83a221.27,221.27,0,0,0,34.55,121.9l3,4.49L47,449.46c.49.75,1,1.5,1.54,2.21,2.15,2.88,4.24,5.81,6.45,8.65s4.53,5.6,6.85,8.36l7.25,8Z"/></g><g class="cls-4"><path class="cls-1" d="M218.75.06A312.38,312.38,0,0,1,339.35,22,316.29,316.29,0,0,1,442.64,89.22l10.87,11.11c3.44,3.88,6.92,7.72,10.32,11.64,3.24,4,6.58,8,9.78,12.11l4.62,6.27,2.31,3.14c.77,1,1.56,2.08,2.26,3.18a276.08,276.08,0,0,1,29.4,54.88l2.73,7.3c.88,2.44,1.88,4.84,2.61,7.34l2.36,7.42c.76,2.48,1.65,4.92,2.22,7.46l1.92,7.54c.61,2.52,1.35,5,1.81,7.56l1.54,7.62.74,3.81.36,1.91.27,1.92a269,269,0,0,1,3,61.67h-1a385.68,385.68,0,0,0-8.93-60.31l-.4-1.85L521,249.1l-1-3.66-1.91-7.33c-.58-2.46-1.43-4.84-2.16-7.26l-2.26-7.22c-.71-2.42-1.64-4.77-2.47-7.15l-2.55-7.11c-.8-2.39-1.85-4.68-2.8-7l-2.9-7a362.39,362.39,0,0,0-28.39-53.2c-.64-1.09-1.37-2.11-2.08-3.15l-2.13-3.12-4.27-6.24c-3-4.07-6.06-8.05-9.1-12.08-3.2-3.9-6.48-7.73-9.72-11.6L437,94.87A312.64,312.64,0,0,0,279.45,8L272,6.59l-3.75-.73-1.88-.37-1.89-.28-7.57-1.08-3.78-.54c-1.26-.18-2.52-.38-3.79-.48-5.07-.46-10.15-1-15.24-1.4l-15.3-.67Z"/></g></g></g></svg>