<svg xmlns="http://www.w3.org/2000/svg" viewBox="0 0 131.29 82.9"><defs><style>.cls-1{fill:#f15a24;}.cls-2{font-size:32px;fill:#e8e6e6;font-family:PoorRichard-Regular, Poor Richard;}</style></defs><title>Asset 6</title><g id="Layer_2" data-name="Layer 2"><g id="Layer_1-2" data-name="Layer 1"><path class="cls-1" d="M131.25,14.51a66.28,66.28,0,0,1-.78,12.85,65.47,65.47,0,0,1-3.36,12.51,66.77,66.77,0,0,1-13.77,22.06A67.48,67.48,0,0,1,91.9,77.13,68,68,0,0,1,66,82.88a70.13,70.13,0,0,1-26.4-4.42A61,61,0,0,1,17.18,63.59,62.81,62.81,0,0,1,3.26,40.79,57,57,0,0,1,.45,14.84h.8a76.6,76.6,0,0,0,7.2,23.78,68.67,68.67,0,0,0,14.38,19.3A72.28,72.28,0,0,0,42.63,71.14,60.22,60.22,0,0,0,54,75a62.28,62.28,0,0,0,12,1.49,63,63,0,0,0,44.5-17.37,63.53,63.53,0,0,0,14.32-20.18,65.59,65.59,0,0,0,5.62-24.42Z"/><text class="cls-2" transform="translate(42.86 27.2)">info</text></g></g></svg>