<svg xmlns="http://www.w3.org/2000/svg" viewBox="0 0 1338.24 620.54"><defs><style>.cls-1{fill:none;stroke:#fbb03b;stroke-miterlimit:10;}</style></defs><title>Asset 50</title><g id="Layer_2" data-name="Layer 2"><g id="Layer_1-2" data-name="Layer 1"><path class="cls-1" d="M1337.74,620.54c0-57.5-103-83-232.5-32.5-99.57,38.83-105.24,9.81-372.5-6.5C546.15,570.16,451.36,543,377.24,564c-51.9,14.76-130.73,44.83-232,33-88.21-10.3-100-41.48-102-48-5.61-18.14,6.91-31,3-58C42.18,463,16.69,450.6.32,436.63"/><path class="cls-1" d="M866.74,618.54c0-17-12.38-53.73-40-62-45.07-13.49-97.59,40.74-143,56-70.74,23.76-106.11-24.24-245-44-161-22.9-271-70-309-118-25.86-32.66-100.88-16-129.42-13.92"/><path class="cls-1" d="M411.74,620.54c0-60-216.21-22.82-279-89-37-39-80-81-132.42-94.92"/><path class="cls-1" d="M1332.74,143.54c0-278-189.51-52-360-64-126.38-8.9-202.56-75.94-394-78-207.49-2.24-237.28-2.92-312,20-50.37,15.45-136.16,55.26-147,151-4.25,37.55,54.41,135.29,46,173-13.12,58.84-112,78-165.42,91.08"/><path class="cls-1" d="M875.74,142.54c0-80-104.87-71.21-194-52-84.19,18.14-116.4-35.2-244-24-97.1,8.52-153.6,37.41-182,79-28,41-53,143-124,207C96.34,384.45,32.31,434.19.32,436.63"/><path class="cls-1" d="M420.74,146.54c0-24-3.46-102.53-75-95-76,8-212.87,116.38-249,185C71,285.48,59.74,413.54.32,436.63"/></g></g></svg>